<!-- icons.svg -->
<svg xmlns="http://www.w3.org/2000/svg">
  <symbol id="edit-icon" viewBox="0 0 628 628">
    <path
      d="M401.758,108.949L518.697,225.888L177.637,566.947C177.637,566.947 80.794,600.407 29.719,618.045C23.998,620.028 17.648,618.568 13.363,614.283C9.09,610.01 7.63,603.66 9.601,597.938C27.251,546.852 60.699,450.02 60.699,450.02L401.758,108.949ZM371.93,225.354L157.578,439.706C148.07,449.213 147.501,464.074 156.308,472.881C165.115,481.688 179.988,481.119 189.483,471.611L403.847,257.259C413.343,247.752 413.912,232.891 405.117,224.084C396.31,215.277 381.437,215.846 371.93,225.354ZM602.424,142.16C612.952,131.632 618.863,117.353 618.863,102.457C618.863,87.561 612.952,73.282 602.424,62.753C590.317,50.646 577.012,37.341 564.905,25.234C554.376,14.694 540.085,8.782 525.189,8.782C510.305,8.782 496.014,14.694 485.486,25.234C463.563,47.145 440.737,69.97 440.737,69.97L557.676,186.909C557.676,186.909 580.501,164.083 602.424,142.16Z"
    />
  </symbol>
  <symbol id="edit-mini-icon" viewBox="0 0 628 628">
    <path
      d="M370.989,112.823L514.786,256.631L207.651,563.788C207.651,563.788 88.565,604.937 25.759,626.628C18.724,629.065 10.915,627.27 5.646,622C0.392,616.746 -1.403,608.936 1.019,601.901C22.723,539.076 63.854,419.995 63.854,419.995L370.989,112.823ZM334.309,255.974L182.985,407.31C171.293,419.002 170.593,437.277 181.423,448.108C192.253,458.939 210.541,458.238 222.218,446.546L373.557,295.21C385.234,283.518 385.935,265.243 375.119,254.412C364.289,243.581 346.001,244.282 334.309,255.974ZM607.385,164.025C620.331,151.077 627.6,133.517 627.6,115.198C627.6,96.879 620.331,79.319 607.385,66.372C592.497,51.483 576.135,35.12 561.248,20.231C548.301,7.269 530.728,0 512.41,0C494.107,0 476.534,7.269 463.588,20.231C436.629,47.177 408.463,75.345 408.463,75.345L552.26,219.153C552.26,219.153 580.427,190.985 607.385,164.025Z"
    />
  </symbol>
  <symbol id="link-icon" viewBox="0 0 628 628">
    <path
      d="M597.884,156.202C638.911,227.264 614.564,318.129 543.502,359.156L432.303,423.358C364.865,462.292 279.602,442.329 236.002,379.473C223.744,361.801 228.139,337.501 245.811,325.243C263.484,312.985 287.783,317.381 300.041,335.053C320.76,364.923 361.288,374.365 393.334,355.862L504.534,291.661C538.319,272.156 549.894,228.955 530.389,195.171L530.388,195.169C510.882,161.384 467.682,149.809 433.897,169.314L412.602,181.609C393.976,192.362 370.124,185.971 359.37,167.345C348.617,148.72 355.008,124.867 373.634,114.114L394.929,101.819C465.99,60.792 556.855,85.14 597.883,156.201L597.884,156.202ZM29.716,471.497C-11.311,400.436 13.036,309.57 84.098,268.543L195.297,204.342C262.735,165.407 347.998,185.37 391.598,248.227C403.856,265.899 399.461,290.198 381.789,302.456C364.116,314.714 339.817,310.319 327.559,292.647C306.84,262.777 266.312,253.335 234.266,271.837L123.066,336.038C89.281,355.544 77.706,398.744 97.211,432.529L97.212,432.531C116.718,466.315 159.918,477.891 193.703,458.385L214.998,446.091C233.624,435.337 257.476,441.728 268.23,460.354C278.983,478.98 272.592,502.832 253.966,513.586L232.671,525.88C161.61,566.907 70.745,542.56 29.717,471.498L29.716,471.497Z"
    />
  </symbol>
  <symbol id="close-icon" viewBox="0 0 628 628">
    <path
      d="M235.961,313.85L85.782,163.67L163.621,85.831L313.8,236.011L463.979,85.831L541.818,163.67L391.639,313.85L541.818,464.029L463.979,541.868L313.8,391.689L163.621,541.868L85.782,464.029L235.961,313.85Z"
    />
  </symbol>
  <symbol id="delete-icon" viewBox="0 0 628 628">
    <path
      d="M410.044,52.072L539.217,52.072C548.498,52.072 556.021,59.718 556.021,69.151L556.021,124.217C556.021,133.65 548.498,141.296 539.217,141.296L88.383,141.296C79.102,141.296 71.579,133.65 71.579,124.217L71.579,69.151C71.579,59.718 79.102,52.072 88.383,52.072L217.556,52.072L231.94,26.016C234.969,20.529 240.677,17.132 246.868,17.132L380.732,17.132C386.923,17.132 392.631,20.529 395.66,26.016L410.044,52.072ZM104.708,191.8L522.892,191.8L498.134,563.746C496.393,590.097 474.855,610.567 448.87,610.568L178.73,610.568C152.745,610.567 131.207,590.097 129.466,563.746L104.708,191.8Z"
    />
  </symbol>
  <symbol id="numeric-ordering-icon" viewBox="0 0 628 628">
    <path
      d="M334.737,616.942C329.901,623.694 322.105,627.699 313.8,627.699C305.495,627.699 297.699,623.694 292.863,616.942L124.258,381.543C118.638,373.695 117.877,363.363 122.289,354.778C126.7,346.192 135.542,340.794 145.195,340.794L482.405,340.794C492.058,340.794 500.9,346.192 505.311,354.778C509.723,363.363 508.962,373.695 503.342,381.543L334.737,616.942ZM215.594,198.096L175.241,198.096C173.491,198.096 171.833,197.316 170.717,195.968C169.601,194.62 169.145,192.845 169.471,191.127L176.075,156.374C176.601,153.603 179.024,151.597 181.845,151.597L224.429,151.597L230.515,119.573L190.145,119.573C188.395,119.573 186.737,118.793 185.621,117.445C184.505,116.098 184.048,114.323 184.375,112.604L190.978,77.851C191.505,75.08 193.928,73.074 196.748,73.074L239.35,73.074L252.282,5.018C252.808,2.247 255.231,0.241 258.052,0.241L309.224,0.241C310.973,0.241 312.632,1.021 313.748,2.369C314.863,3.717 315.32,5.492 314.994,7.211L302.478,73.074L348.878,73.074L361.81,5.018C362.336,2.247 364.759,0.241 367.579,0.241L418.751,0.241C420.501,0.241 422.159,1.021 423.275,2.369C424.391,3.717 424.848,5.492 424.521,7.211L412.006,73.074L452.357,73.074C454.106,73.074 455.765,73.855 456.881,75.202C457.996,76.55 458.453,78.325 458.127,80.044L451.523,114.796C450.997,117.568 448.574,119.573 445.753,119.573L403.171,119.573L397.085,151.597L437.453,151.597C439.203,151.597 440.861,152.377 441.977,153.725C443.093,155.073 443.549,156.848 443.223,158.567L436.619,193.319C436.093,196.091 433.67,198.096 430.849,198.096L388.25,198.096L375.318,266.153C374.792,268.924 372.369,270.929 369.548,270.929L318.376,270.929C316.627,270.929 314.968,270.149 313.852,268.801C312.737,267.454 312.28,265.679 312.606,263.96L325.122,198.096L278.722,198.096L265.79,266.153C265.264,268.924 262.841,270.929 260.021,270.929L208.849,270.929C207.099,270.929 205.441,270.149 204.325,268.801C203.209,267.454 202.752,265.679 203.079,263.96L215.594,198.096ZM293.643,119.573L287.558,151.597L333.957,151.597L340.042,119.573L293.643,119.573Z"
    />
  </symbol>
  <symbol id="store-icon" viewBox="0 0 628 628">
    <path
      d="M317.354,159.98L317.354,47.714C317.354,32.526 329.666,20.214 344.854,20.214L519.059,20.214C567.868,20.214 607.436,59.781 607.436,108.591L607.436,519.109C607.436,567.918 567.868,607.486 519.059,607.486L108.541,607.486C59.732,607.486 20.164,567.918 20.164,519.109L20.164,108.591C20.164,59.781 59.732,20.214 108.541,20.214L228.297,20.214C243.475,20.214 255.797,32.536 255.797,47.714C255.797,62.891 243.475,75.214 228.297,75.214L108.541,75.214C90.107,75.214 75.164,90.157 75.164,108.591L75.164,519.109C75.164,537.542 90.107,552.486 108.541,552.486L519.059,552.486C537.493,552.486 552.436,537.542 552.436,519.109L552.436,108.591C552.436,90.157 537.493,75.214 519.059,75.214L372.354,75.214L372.354,171.487C428.293,194.544 467.71,249.63 467.71,313.85C467.71,398.795 398.745,467.76 313.8,467.76C228.855,467.76 159.89,398.795 159.89,313.85C159.89,228.904 228.855,159.94 313.8,159.94C314.988,159.94 316.172,159.953 317.354,159.98ZM313.8,255.94C281.839,255.94 255.89,281.888 255.89,313.85C255.89,345.811 281.839,371.76 313.8,371.76C345.761,371.76 371.71,345.811 371.71,313.85C371.71,281.888 345.761,255.94 313.8,255.94Z"
    />
  </symbol>
  <symbol id="close-circle-icon" viewBox="0 0 628 628">
    <path
      d="M313.8,-0C486.991,-0 627.6,140.609 627.6,313.8C627.6,486.991 486.991,627.6 313.8,627.6C140.609,627.6 -0,486.991 -0,313.8C-0,140.609 140.609,-0 313.8,-0ZM313.8,54.254C170.553,54.254 54.254,170.553 54.254,313.8C54.254,457.047 170.553,573.346 313.8,573.346C457.047,573.346 573.346,457.047 573.346,313.8C573.346,170.553 457.047,54.254 313.8,54.254ZM269.319,313.8L180.95,225.431C177.74,222.222 177.74,217.018 180.95,213.808L213.808,180.95C217.018,177.74 222.222,177.74 225.431,180.95L313.8,269.319L402.169,180.95C405.378,177.74 410.582,177.74 413.792,180.95L446.65,213.808C448.192,215.35 449.058,217.44 449.058,219.62C449.058,221.8 448.192,223.89 446.65,225.431L358.281,313.8L446.65,402.169C448.192,403.71 449.058,405.8 449.058,407.98C449.058,410.16 448.192,412.25 446.65,413.792L413.792,446.65C410.582,449.86 405.378,449.86 402.169,446.65L313.8,358.281L225.431,446.65C222.222,449.86 217.018,449.86 213.808,446.65L180.95,413.792C177.74,410.582 177.74,405.378 180.95,402.169L269.319,313.8Z"
    />
  </symbol>
</svg>