<!-- icons.svg -->
<svg xmlns="http://www.w3.org/2000/svg">
  <symbol id="edit-icon" viewBox="0 0 628 628">
    <path
      d="M401.758,108.949L518.697,225.888L177.637,566.947C177.637,566.947 80.794,600.407 29.719,618.045C23.998,620.028 17.648,618.568 13.363,614.283C9.09,610.01 7.63,603.66 9.601,597.938C27.251,546.852 60.699,450.02 60.699,450.02L401.758,108.949ZM371.93,225.354L157.578,439.706C148.07,449.213 147.501,464.074 156.308,472.881C165.115,481.688 179.988,481.119 189.483,471.611L403.847,257.259C413.343,247.752 413.912,232.891 405.117,224.084C396.31,215.277 381.437,215.846 371.93,225.354ZM602.424,142.16C612.952,131.632 618.863,117.353 618.863,102.457C618.863,87.561 612.952,73.282 602.424,62.753C590.317,50.646 577.012,37.341 564.905,25.234C554.376,14.694 540.085,8.782 525.189,8.782C510.305,8.782 496.014,14.694 485.486,25.234C463.563,47.145 440.737,69.97 440.737,69.97L557.676,186.909C557.676,186.909 580.501,164.083 602.424,142.16Z"
    />
  </symbol>
  <symbol id="edit-mini-icon" viewBox="0 0 628 628">
    <path
      d="M370.989,112.823L514.786,256.631L207.651,563.788C207.651,563.788 88.565,604.937 25.759,626.628C18.724,629.065 10.915,627.27 5.646,622C0.392,616.746 -1.403,608.936 1.019,601.901C22.723,539.076 63.854,419.995 63.854,419.995L370.989,112.823ZM334.309,255.974L182.985,407.31C171.293,419.002 170.593,437.277 181.423,448.108C192.253,458.939 210.541,458.238 222.218,446.546L373.557,295.21C385.234,283.518 385.935,265.243 375.119,254.412C364.289,243.581 346.001,244.282 334.309,255.974ZM607.385,164.025C620.331,151.077 627.6,133.517 627.6,115.198C627.6,96.879 620.331,79.319 607.385,66.372C592.497,51.483 576.135,35.12 561.248,20.231C548.301,7.269 530.728,0 512.41,0C494.107,0 476.534,7.269 463.588,20.231C436.629,47.177 408.463,75.345 408.463,75.345L552.26,219.153C552.26,219.153 580.427,190.985 607.385,164.025Z"
    />
  </symbol>
  <symbol id="link-icon" viewBox="0 0 628 628">
    <path
      d="M597.884,156.202C638.911,227.264 614.564,318.129 543.502,359.156L432.303,423.358C364.865,462.292 279.602,442.329 236.002,379.473C223.744,361.801 228.139,337.501 245.811,325.243C263.484,312.985 287.783,317.381 300.041,335.053C320.76,364.923 361.288,374.365 393.334,355.862L504.534,291.661C538.319,272.156 549.894,228.955 530.389,195.171L530.388,195.169C510.882,161.384 467.682,149.809 433.897,169.314L412.602,181.609C393.976,192.362 370.124,185.971 359.37,167.345C348.617,148.72 355.008,124.867 373.634,114.114L394.929,101.819C465.99,60.792 556.855,85.14 597.883,156.201L597.884,156.202ZM29.716,471.497C-11.311,400.436 13.036,309.57 84.098,268.543L195.297,204.342C262.735,165.407 347.998,185.37 391.598,248.227C403.856,265.899 399.461,290.198 381.789,302.456C364.116,314.714 339.817,310.319 327.559,292.647C306.84,262.777 266.312,253.335 234.266,271.837L123.066,336.038C89.281,355.544 77.706,398.744 97.211,432.529L97.212,432.531C116.718,466.315 159.918,477.891 193.703,458.385L214.998,446.091C233.624,435.337 257.476,441.728 268.23,460.354C278.983,478.98 272.592,502.832 253.966,513.586L232.671,525.88C161.61,566.907 70.745,542.56 29.717,471.498L29.716,471.497Z"
    />
  </symbol>
  <symbol id="close-icon" viewBox="0 0 628 628">
    <path
      d="M235.961,313.85L85.782,163.67L163.621,85.831L313.8,236.011L463.979,85.831L541.818,163.67L391.639,313.85L541.818,464.029L463.979,541.868L313.8,391.689L163.621,541.868L85.782,464.029L235.961,313.85Z"
    />
  </symbol>
  <symbol id="delete-icon" viewBox="0 0 628 628">
    <path
      d="M410.044,52.072L539.217,52.072C548.498,52.072 556.021,59.718 556.021,69.151L556.021,124.217C556.021,133.65 548.498,141.296 539.217,141.296L88.383,141.296C79.102,141.296 71.579,133.65 71.579,124.217L71.579,69.151C71.579,59.718 79.102,52.072 88.383,52.072L217.556,52.072L231.94,26.016C234.969,20.529 240.677,17.132 246.868,17.132L380.732,17.132C386.923,17.132 392.631,20.529 395.66,26.016L410.044,52.072ZM104.708,191.8L522.892,191.8L498.134,563.746C496.393,590.097 474.855,610.567 448.87,610.568L178.73,610.568C152.745,610.567 131.207,590.097 129.466,563.746L104.708,191.8Z"
    />
  </symbol>
  <symbol id="numeric-ordering-icon" viewBox="0 0 628 628">
    <path
      d="M334.737,616.942C329.901,623.694 322.105,627.699 313.8,627.699C305.495,627.699 297.699,623.694 292.863,616.942L124.258,381.543C118.638,373.695 117.877,363.363 122.289,354.778C126.7,346.192 135.542,340.794 145.195,340.794L482.405,340.794C492.058,340.794 500.9,346.192 505.311,354.778C509.723,363.363 508.962,373.695 503.342,381.543L334.737,616.942ZM215.594,198.096L175.241,198.096C173.491,198.096 171.833,197.316 170.717,195.968C169.601,194.62 169.145,192.845 169.471,191.127L176.075,156.374C176.601,153.603 179.024,151.597 181.845,151.597L224.429,151.597L230.515,119.573L190.145,119.573C188.395,119.573 186.737,118.793 185.621,117.445C184.505,116.098 184.048,114.323 184.375,112.604L190.978,77.851C191.505,75.08 193.928,73.074 196.748,73.074L239.35,73.074L252.282,5.018C252.808,2.247 255.231,0.241 258.052,0.241L309.224,0.241C310.973,0.241 312.632,1.021 313.748,2.369C314.863,3.717 315.32,5.492 314.994,7.211L302.478,73.074L348.878,73.074L361.81,5.018C362.336,2.247 364.759,0.241 367.579,0.241L418.751,0.241C420.501,0.241 422.159,1.021 423.275,2.369C424.391,3.717 424.848,5.492 424.521,7.211L412.006,73.074L452.357,73.074C454.106,73.074 455.765,73.855 456.881,75.202C457.996,76.55 458.453,78.325 458.127,80.044L451.523,114.796C450.997,117.568 448.574,119.573 445.753,119.573L403.171,119.573L397.085,151.597L437.453,151.597C439.203,151.597 440.861,152.377 441.977,153.725C443.093,155.073 443.549,156.848 443.223,158.567L436.619,193.319C436.093,196.091 433.67,198.096 430.849,198.096L388.25,198.096L375.318,266.153C374.792,268.924 372.369,270.929 369.548,270.929L318.376,270.929C316.627,270.929 314.968,270.149 313.852,268.801C312.737,267.454 312.28,265.679 312.606,263.96L325.122,198.096L278.722,198.096L265.79,266.153C265.264,268.924 262.841,270.929 260.021,270.929L208.849,270.929C207.099,270.929 205.441,270.149 204.325,268.801C203.209,267.454 202.752,265.679 203.079,263.96L215.594,198.096ZM293.643,119.573L287.558,151.597L333.957,151.597L340.042,119.573L293.643,119.573Z"
    />
  </symbol>
  <symbol id="store-icon" viewBox="0 0 628 628">
    <path
      d="M317.354,159.98L317.354,47.714C317.354,32.526 329.666,20.214 344.854,20.214L519.059,20.214C567.868,20.214 607.436,59.781 607.436,108.591L607.436,519.109C607.436,567.918 567.868,607.486 519.059,607.486L108.541,607.486C59.732,607.486 20.164,567.918 20.164,519.109L20.164,108.591C20.164,59.781 59.732,20.214 108.541,20.214L228.297,20.214C243.475,20.214 255.797,32.536 255.797,47.714C255.797,62.891 243.475,75.214 228.297,75.214L108.541,75.214C90.107,75.214 75.164,90.157 75.164,108.591L75.164,519.109C75.164,537.542 90.107,552.486 108.541,552.486L519.059,552.486C537.493,552.486 552.436,537.542 552.436,519.109L552.436,108.591C552.436,90.157 537.493,75.214 519.059,75.214L372.354,75.214L372.354,171.487C428.293,194.544 467.71,249.63 467.71,313.85C467.71,398.795 398.745,467.76 313.8,467.76C228.855,467.76 159.89,398.795 159.89,313.85C159.89,228.904 228.855,159.94 313.8,159.94C314.988,159.94 316.172,159.953 317.354,159.98ZM313.8,255.94C281.839,255.94 255.89,281.888 255.89,313.85C255.89,345.811 281.839,371.76 313.8,371.76C345.761,371.76 371.71,345.811 371.71,313.85C371.71,281.888 345.761,255.94 313.8,255.94Z"
    />
  </symbol>
  <symbol id="close-circle-icon" viewBox="0 0 628 628">
    <path
      d="M313.8,-0C486.991,-0 627.6,140.609 627.6,313.8C627.6,486.991 486.991,627.6 313.8,627.6C140.609,627.6 -0,486.991 -0,313.8C-0,140.609 140.609,-0 313.8,-0ZM313.8,54.254C170.553,54.254 54.254,170.553 54.254,313.8C54.254,457.047 170.553,573.346 313.8,573.346C457.047,573.346 573.346,457.047 573.346,313.8C573.346,170.553 457.047,54.254 313.8,54.254ZM269.319,313.8L180.95,225.431C177.74,222.222 177.74,217.018 180.95,213.808L213.808,180.95C217.018,177.74 222.222,177.74 225.431,180.95L313.8,269.319L402.169,180.95C405.378,177.74 410.582,177.74 413.792,180.95L446.65,213.808C448.192,215.35 449.058,217.44 449.058,219.62C449.058,221.8 448.192,223.89 446.65,225.431L358.281,313.8L446.65,402.169C448.192,403.71 449.058,405.8 449.058,407.98C449.058,410.16 448.192,412.25 446.65,413.792L413.792,446.65C410.582,449.86 405.378,449.86 402.169,446.65L313.8,358.281L225.431,446.65C222.222,449.86 217.018,449.86 213.808,446.65L180.95,413.792C177.74,410.582 177.74,405.378 180.95,402.169L269.319,313.8Z"
    />
  </symbol>
  <symbol id="linked-to-studio" viewBox="0 0 1056 1056">
    <path
      d="M395.78,293.251L395.78,197.89L1055.11,197.89L1055.11,857.214L395.78,857.214L395.78,761.854C466.446,708.091 512.098,623.111 512.098,527.552C512.098,431.994 466.446,347.013 395.78,293.251ZM837.466,518.286L837.466,508.941C837.466,506.407 837.176,503.701 836.595,500.824C836.014,497.946 835.077,495.095 833.783,492.271C832.49,489.446 830.853,486.74 828.873,484.153C826.893,481.566 824.491,479.282 821.667,477.303C818.842,475.323 815.582,473.739 811.886,472.551C808.19,471.363 804.019,470.769 799.373,470.769L752.806,470.769C749.955,470.769 746.84,471.284 743.461,472.313C740.082,473.343 736.953,474.993 734.076,477.263C731.199,479.533 728.796,482.516 726.869,486.212C724.942,489.908 723.978,494.396 723.978,499.675L723.978,584.336L744.569,584.336L744.569,499.675C744.569,496.983 745.282,494.924 746.708,493.498C748.133,492.073 750.219,491.36 752.964,491.36L799.373,491.36C802.066,491.36 804.441,491.795 806.501,492.667C808.56,493.538 810.315,494.739 811.767,496.27C813.219,497.801 814.367,499.649 815.212,501.814C816.057,503.978 816.611,506.354 816.875,508.941L816.875,518.286C816.875,520.926 816.453,523.289 815.608,525.374C814.763,527.46 813.575,529.242 812.044,530.72C810.513,532.198 808.678,533.373 806.54,534.244C804.402,535.116 802.013,535.657 799.373,535.868L752.806,535.868L752.806,556.459L799.373,556.459C801.907,556.459 804.613,556.168 807.49,555.588C810.368,555.007 813.219,554.083 816.044,552.816C818.868,551.549 821.574,549.912 824.161,547.906C826.748,545.899 829.032,543.484 831.012,540.659C832.992,537.835 834.562,534.574 835.724,530.879C836.885,527.183 837.466,522.985 837.466,518.286ZM704.417,584.336L704.417,563.745L630.29,563.745C627.544,563.745 625.459,563.032 624.033,561.607C622.608,560.181 621.895,558.122 621.895,555.429L621.895,491.36L704.417,491.36L704.417,470.769L611.679,470.769C610.201,470.769 608.828,471.033 607.561,471.561C606.294,472.089 605.198,472.828 604.274,473.778C603.35,474.729 602.624,475.837 602.096,477.105C601.568,478.372 601.304,479.718 601.304,481.144L601.304,555.429C601.304,560.762 602.268,565.263 604.195,568.932C606.122,572.602 608.524,575.585 611.402,577.881C614.279,580.178 617.407,581.828 620.786,582.831C624.165,583.834 627.28,584.336 630.131,584.336L704.417,584.336ZM1001.56,584.336L1001.56,563.745L927.274,563.745C924.634,563.745 922.588,563.019 921.136,561.567C919.685,560.115 918.959,558.069 918.959,555.429L918.959,499.834C918.959,497.036 919.671,494.924 921.097,493.498C922.522,492.073 924.581,491.36 927.274,491.36L1001.56,491.36L1001.56,470.769L927.274,470.769C923.737,470.769 920.569,471.218 917.771,472.115C914.972,473.013 912.504,474.214 910.366,475.719C908.228,477.223 906.393,478.952 904.862,480.906C903.331,482.859 902.09,484.905 901.14,487.044C900.189,489.182 899.49,491.347 899.041,493.538C898.592,495.729 898.368,497.775 898.368,499.675L898.368,555.429C898.368,558.967 898.816,562.148 899.714,564.972C900.612,567.797 901.813,570.278 903.317,572.417C904.822,574.555 906.551,576.377 908.505,577.881C910.458,579.386 912.504,580.614 914.642,581.564C916.781,582.514 918.945,583.214 921.136,583.663C923.328,584.111 925.373,584.336 927.274,584.336L1001.56,584.336ZM695.151,537.927L695.151,517.178L630.131,517.178L630.131,537.927L695.151,537.927ZM875.797,584.336L875.797,470.769L855.206,470.769L855.206,584.336L875.797,584.336ZM421.012,469.996C451.306,522.467 433.328,589.561 380.858,619.855L304.444,663.972C254.648,692.721 191.69,677.976 159.496,631.563C148.679,615.968 152.558,594.526 168.152,583.709C183.746,572.892 205.189,576.771 216.006,592.365C228.009,609.67 251.491,615.131 270.058,604.412L346.471,560.295C366.016,549.01 372.733,524.039 361.505,504.476L361.452,504.383L361.451,504.382C350.149,484.806 325.117,478.098 305.54,489.401L289.518,498.651C273.082,508.14 252.034,502.501 242.545,486.065C233.055,469.629 238.695,448.58 255.131,439.091L271.153,429.841C323.624,399.547 390.717,417.525 421.011,469.995L421.012,469.996ZM14.716,696.934C-15.578,644.464 2.4,577.37 54.87,547.076L131.283,502.959C181.079,474.209 244.038,488.955 276.232,535.368C287.049,550.963 283.17,572.405 267.576,583.222C251.981,594.039 230.539,590.16 219.722,574.566C207.718,557.261 184.237,551.8 165.67,562.519L89.257,606.636C69.711,617.921 62.994,642.892 74.222,662.455L74.276,662.547L74.276,662.549C85.579,682.125 110.611,688.833 130.188,677.53L146.21,668.28C162.646,658.79 183.694,664.43 193.183,680.866C202.673,697.302 197.033,718.35 180.597,727.84L164.575,737.09C112.104,767.384 45.01,749.406 14.717,696.936L14.716,696.934Z"
    />
  </symbol>
</svg>