<!-- icons.svg -->
<svg xmlns="http://www.w3.org/2000/svg">
  <symbol id="edit-icon" viewBox="0 0 628 628">
    <path
      d="M401.758,108.949L518.697,225.888L177.637,566.947C177.637,566.947 80.794,600.407 29.719,618.045C23.998,620.028 17.648,618.568 13.363,614.283C9.09,610.01 7.63,603.66 9.601,597.938C27.251,546.852 60.699,450.02 60.699,450.02L401.758,108.949ZM371.93,225.354L157.578,439.706C148.07,449.213 147.501,464.074 156.308,472.881C165.115,481.688 179.988,481.119 189.483,471.611L403.847,257.259C413.343,247.752 413.912,232.891 405.117,224.084C396.31,215.277 381.437,215.846 371.93,225.354ZM602.424,142.16C612.952,131.632 618.863,117.353 618.863,102.457C618.863,87.561 612.952,73.282 602.424,62.753C590.317,50.646 577.012,37.341 564.905,25.234C554.376,14.694 540.085,8.782 525.189,8.782C510.305,8.782 496.014,14.694 485.486,25.234C463.563,47.145 440.737,69.97 440.737,69.97L557.676,186.909C557.676,186.909 580.501,164.083 602.424,142.16Z"
    />
  </symbol>
  <symbol id="edit-mini-icon" viewBox="0 0 628 628">
    <path
      d="M370.989,112.823L514.786,256.631L207.651,563.788C207.651,563.788 88.565,604.937 25.759,626.628C18.724,629.065 10.915,627.27 5.646,622C0.392,616.746 -1.403,608.936 1.019,601.901C22.723,539.076 63.854,419.995 63.854,419.995L370.989,112.823ZM334.309,255.974L182.985,407.31C171.293,419.002 170.593,437.277 181.423,448.108C192.253,458.939 210.541,458.238 222.218,446.546L373.557,295.21C385.234,283.518 385.935,265.243 375.119,254.412C364.289,243.581 346.001,244.282 334.309,255.974ZM607.385,164.025C620.331,151.077 627.6,133.517 627.6,115.198C627.6,96.879 620.331,79.319 607.385,66.372C592.497,51.483 576.135,35.12 561.248,20.231C548.301,7.269 530.728,0 512.41,0C494.107,0 476.534,7.269 463.588,20.231C436.629,47.177 408.463,75.345 408.463,75.345L552.26,219.153C552.26,219.153 580.427,190.985 607.385,164.025Z"
    />
  </symbol>
  <symbol id="link-icon" viewBox="0 0 628 628">
    <path
      d="M591.462,158.76C632.868,230.477 608.296,322.181 536.58,363.586L432.138,423.886C364.077,463.181 278.026,443.027 234.022,379.589C219.238,358.274 224.539,328.967 245.854,314.182C267.168,299.398 296.476,304.699 311.26,326.014C327.667,349.666 359.762,357.13 385.138,342.479L489.58,282.18C516.295,266.756 525.475,232.625 510.129,205.887L510.056,205.76L510.055,205.759C494.607,179.002 460.393,169.834 433.636,185.282L411.737,197.926C389.272,210.896 360.504,203.187 347.534,180.722C334.563,158.258 342.272,129.489 364.737,116.519L386.636,103.876C458.352,62.47 550.056,87.042 591.462,158.759L591.462,158.76ZM36.138,468.939C-5.268,397.222 19.304,305.519 91.02,264.113L195.462,203.814C263.523,164.519 349.574,184.672 393.578,248.111C408.362,269.425 403.061,298.733 381.746,313.517C360.432,328.302 331.124,323 316.34,301.686C299.933,278.033 267.838,270.569 242.462,285.22L138.02,345.519C111.305,360.943 102.125,395.074 117.471,421.812L117.544,421.939L117.545,421.941C132.993,448.698 167.207,457.865 193.964,442.417L215.863,429.774C238.328,416.804 267.096,424.512 280.066,446.977C293.037,469.442 285.328,498.21 262.863,511.18L240.964,523.824C169.248,565.229 77.544,540.657 36.138,468.941L36.138,468.939Z"
    />
  </symbol>
  <symbol id="close-icon" viewBox="0 0 628 628">
    <path
      d="M235.961,313.85L85.782,163.67L163.621,85.831L313.8,236.011L463.979,85.831L541.818,163.67L391.639,313.85L541.818,464.029L463.979,541.868L313.8,391.689L163.621,541.868L85.782,464.029L235.961,313.85Z"
    />
  </symbol>
  <symbol id="delete-icon" viewBox="0 0 628 628">
    <path
      d="M410.044,52.072L539.217,52.072C548.498,52.072 556.021,59.718 556.021,69.151L556.021,124.217C556.021,133.65 548.498,141.296 539.217,141.296L88.383,141.296C79.102,141.296 71.579,133.65 71.579,124.217L71.579,69.151C71.579,59.718 79.102,52.072 88.383,52.072L217.556,52.072L231.94,26.016C234.969,20.529 240.677,17.132 246.868,17.132L380.732,17.132C386.923,17.132 392.631,20.529 395.66,26.016L410.044,52.072ZM104.708,191.8L522.892,191.8L498.134,563.746C496.393,590.097 474.855,610.567 448.87,610.568L178.73,610.568C152.745,610.567 131.207,590.097 129.466,563.746L104.708,191.8Z"
    />
  </symbol>
  <symbol id="numeric-ordering-icon" viewBox="0 0 628 628">
    <path
      d="M334.737,616.942C329.901,623.694 322.105,627.699 313.8,627.699C305.495,627.699 297.699,623.694 292.863,616.942L124.258,381.543C118.638,373.695 117.877,363.363 122.289,354.778C126.7,346.192 135.542,340.794 145.195,340.794L482.405,340.794C492.058,340.794 500.9,346.192 505.311,354.778C509.723,363.363 508.962,373.695 503.342,381.543L334.737,616.942ZM215.594,198.096L175.241,198.096C173.491,198.096 171.833,197.316 170.717,195.968C169.601,194.62 169.145,192.845 169.471,191.127L176.075,156.374C176.601,153.603 179.024,151.597 181.845,151.597L224.429,151.597L230.515,119.573L190.145,119.573C188.395,119.573 186.737,118.793 185.621,117.445C184.505,116.098 184.048,114.323 184.375,112.604L190.978,77.851C191.505,75.08 193.928,73.074 196.748,73.074L239.35,73.074L252.282,5.018C252.808,2.247 255.231,0.241 258.052,0.241L309.224,0.241C310.973,0.241 312.632,1.021 313.748,2.369C314.863,3.717 315.32,5.492 314.994,7.211L302.478,73.074L348.878,73.074L361.81,5.018C362.336,2.247 364.759,0.241 367.579,0.241L418.751,0.241C420.501,0.241 422.159,1.021 423.275,2.369C424.391,3.717 424.848,5.492 424.521,7.211L412.006,73.074L452.357,73.074C454.106,73.074 455.765,73.855 456.881,75.202C457.996,76.55 458.453,78.325 458.127,80.044L451.523,114.796C450.997,117.568 448.574,119.573 445.753,119.573L403.171,119.573L397.085,151.597L437.453,151.597C439.203,151.597 440.861,152.377 441.977,153.725C443.093,155.073 443.549,156.848 443.223,158.567L436.619,193.319C436.093,196.091 433.67,198.096 430.849,198.096L388.25,198.096L375.318,266.153C374.792,268.924 372.369,270.929 369.548,270.929L318.376,270.929C316.627,270.929 314.968,270.149 313.852,268.801C312.737,267.454 312.28,265.679 312.606,263.96L325.122,198.096L278.722,198.096L265.79,266.153C265.264,268.924 262.841,270.929 260.021,270.929L208.849,270.929C207.099,270.929 205.441,270.149 204.325,268.801C203.209,267.454 202.752,265.679 203.079,263.96L215.594,198.096ZM293.643,119.573L287.558,151.597L333.957,151.597L340.042,119.573L293.643,119.573Z"
    />
  </symbol>
</svg>